<svg width="53" height="53" viewBox="0 0 53 53" fill="none" xmlns="http://www.w3.org/2000/svg">
<path d="M0 26.4604C0 12.0064 11.7173 0.289062 26.1714 0.289062C40.6254 0.289062 52.3426 12.0064 52.3426 26.4604C52.3426 40.9144 40.6254 52.6318 26.1714 52.6318C11.7173 52.6318 0 40.9144 0 26.4604Z" fill="#0161FE"/>
<path fill-rule="evenodd" clip-rule="evenodd" d="M25.3895 37.1856C25.3895 37.1856 17.7031 30.7122 17.7031 24.3425C17.7031 22.0968 18.5952 19.943 20.1832 18.355C21.7711 16.7672 23.9248 15.875 26.1706 15.875C28.4163 15.875 30.57 16.7672 32.158 18.355C33.746 19.943 34.6381 22.0968 34.6381 24.3425C34.6381 30.7122 26.9518 37.1856 26.9518 37.1856C26.5241 37.5793 25.8203 37.5751 25.3895 37.1856ZM26.1706 28.047C26.6571 28.047 27.1388 27.9512 27.5883 27.7651C28.0377 27.5789 28.4461 27.306 28.7901 26.962C29.134 26.618 29.4069 26.2096 29.5931 25.7602C29.7793 25.3108 29.8752 24.829 29.8752 24.3425C29.8752 23.856 29.7793 23.3742 29.5931 22.9248C29.4069 22.4754 29.134 22.067 28.7901 21.723C28.4461 21.379 28.0377 21.1061 27.5883 20.9199C27.1388 20.7338 26.6571 20.638 26.1706 20.638C25.1881 20.638 24.2459 21.0282 23.5511 21.723C22.8563 22.4177 22.4661 23.36 22.4661 24.3425C22.4661 25.3251 22.8563 26.2673 23.5511 26.962C24.2459 27.6568 25.1881 28.047 26.1706 28.047Z" fill="white"/>
</svg>
