<svg width="53" height="53" viewBox="0 0 53 53" fill="none" xmlns="http://www.w3.org/2000/svg">
<path d="M0 26.4604C0 12.0064 11.7173 0.289062 26.1714 0.289062C40.6254 0.289062 52.3426 12.0064 52.3426 26.4604C52.3426 40.9144 40.6254 52.6318 26.1714 52.6318C11.7173 52.6318 0 40.9144 0 26.4604Z" fill="#0161FE"/>
<path d="M31.4625 17.4648H20.8781C17.7028 17.4648 15.5859 19.0525 15.5859 22.757V30.1661C15.5859 33.8706 17.7028 35.4583 20.8781 35.4583H31.4625C34.6378 35.4583 36.7547 33.8706 36.7547 30.1661V22.757C36.7547 19.0525 34.6378 17.4648 31.4625 17.4648ZM31.96 23.9107L28.6471 26.5568C27.9485 27.1178 27.0594 27.393 26.1703 27.393C25.2812 27.393 24.3816 27.1178 23.6936 26.5568L20.3807 23.9107C20.042 23.6355 19.989 23.1275 20.2536 22.7888C20.5288 22.4501 21.0263 22.3866 21.365 22.6618L24.6779 25.3079C25.4823 25.9535 26.8477 25.9535 27.6521 25.3079L30.965 22.6618C31.3037 22.3866 31.8118 22.4395 32.0764 22.7888C32.3516 23.1275 32.2987 23.6355 31.96 23.9107Z" fill="white"/>
</svg>
