<svg width="53" height="53" viewBox="0 0 53 53" fill="none" xmlns="http://www.w3.org/2000/svg">
<path d="M0 26.4604C0 12.0064 11.7173 0.289062 26.1714 0.289062C40.6254 0.289062 52.3426 12.0064 52.3426 26.4604C52.3426 40.9144 40.6254 52.6318 26.1714 52.6318C11.7173 52.6318 0 40.9144 0 26.4604Z" fill="#0161FE"/>
<path d="M21.6952 16.3395L22.8351 15.9754C23.9021 15.6345 25.043 16.186 25.5003 17.2635L26.4106 19.41C26.8075 20.3446 26.5873 21.4443 25.8665 22.1281L23.8629 24.0311C23.9864 25.17 24.3688 26.2909 25.0102 27.3938C25.6202 28.4606 26.4374 29.3944 27.414 30.1404L29.823 29.336C30.7353 29.0322 31.7292 29.3826 32.2891 30.205L33.5931 32.1208C34.2451 33.0776 34.1276 34.3964 33.32 35.2072L32.4542 36.0761C31.5927 36.9409 30.3628 37.2552 29.2239 36.8996C26.5368 36.0613 24.0661 33.5729 21.8116 29.4344C19.5543 25.2889 18.7577 21.7721 19.4217 18.8839C19.7011 17.6689 20.5669 16.7004 21.6973 16.3395" fill="white"/>
</svg>
