<svg width="1336" height="350" viewBox="0 0 1336 350" fill="none" xmlns="http://www.w3.org/2000/svg">
  <rect width="1336" height="350" fill="white"/>
  <rect x="702" y="62" width="288" height="204" rx="8" fill="#F1F2F4"/>
  <rect x="724" y="87" width="26" height="145" rx="3" fill="#7B5C44"/>
  <rect x="760" y="78" width="28" height="154" rx="3" fill="#23364A"/>
  <rect x="799" y="94" width="26" height="138" rx="3" fill="#B38A5E"/>
  <rect x="836" y="80" width="30" height="152" rx="3" fill="#314F39"/>
  <rect x="878" y="88" width="28" height="144" rx="3" fill="#6C4130"/>
  <rect x="918" y="72" width="27" height="160" rx="3" fill="#1E2E3A"/>
  <path d="M668 266H1010" stroke="#E6E8EC" stroke-width="18" stroke-linecap="round"/>
  <ellipse cx="422" cy="234" rx="182" ry="37" fill="#E9E9E9"/>
  <path d="M352 173C297 146 249 182 247 224C246 266 293 288 339 266C359 286 402 295 443 282C484 269 499 236 486 207C474 180 415 159 352 173Z" fill="#B86742"/>
  <circle cx="356" cy="192" r="47" fill="#B66B48"/>
  <circle cx="346" cy="184" r="10" fill="#2B1E19"/>
  <circle cx="350" cy="180" r="3" fill="white"/>
  <path d="M454 215C552 183 627 186 690 209" stroke="#B86742" stroke-width="22" stroke-linecap="round"/>
  <path d="M444 234C536 245 602 278 656 324" stroke="#B86742" stroke-width="20" stroke-linecap="round"/>
  <path d="M335 245C279 281 214 293 139 283" stroke="#B86742" stroke-width="20" stroke-linecap="round"/>
  <path d="M324 226C249 230 180 214 116 179" stroke="#B86742" stroke-width="18" stroke-linecap="round"/>
  <path d="M390 257C373 310 334 332 268 332" stroke="#B86742" stroke-width="18" stroke-linecap="round"/>
  <g fill="#E0A17E" opacity=".8">
    <circle cx="508" cy="204" r="5"/><circle cx="552" cy="199" r="5"/><circle cx="598" cy="202" r="5"/>
    <circle cx="536" cy="258" r="5"/><circle cx="573" cy="277" r="5"/><circle cx="615" cy="302" r="5"/>
    <circle cx="270" cy="278" r="5"/><circle cx="219" cy="281" r="5"/><circle cx="170" cy="276" r="5"/>
  </g>
  <path d="M995 54C1036 38 1080 42 1113 69C1072 80 1031 77 995 54Z" fill="#8CB36F"/>
  <rect x="1018" y="68" width="92" height="17" rx="8.5" fill="#D9CAB9"/>
</svg>
