<svg width="193" height="55" viewBox="0 0 193 55" fill="none" xmlns="http://www.w3.org/2000/svg">
  <path d="M31.5 1.8L59.2 20.9L48.6 53.1H14.4L3.8 20.9L31.5 1.8Z" fill="#FFF9EF" stroke="#EF4444" stroke-width="1.35"/>
  <path d="M31.5 7.1L53.2 22.1L44.9 47.2H18.1L9.8 22.1L31.5 7.1Z" fill="white" stroke="#F59E0B" stroke-width="1"/>
  <circle cx="31.5" cy="27.6" r="7.2" fill="#EF1C24"/>
  <circle cx="31.5" cy="27.6" r="2.1" fill="#FFD22E"/>
  <path d="M31.5 14.4V20.1M31.5 35.1V40.8M18.2 27.6H23.9M39.1 27.6H44.8M22 18.1L26 22.1M37 33.1L41 37.1M41 18.1L37 22.1M26 33.1L22 37.1" stroke="#FFD22E" stroke-width="1.15" stroke-linecap="round"/>
  <text x="17" y="50.2" fill="#0058A8" font-family="Arial, sans-serif" font-size="8.5" font-weight="700">AVLA</text>
  <text x="67" y="20.3" fill="#E30613" font-family="Arial, sans-serif" font-size="21" font-weight="800">AVLA</text>
  <text x="121" y="20.3" fill="#005B87" font-family="Arial, sans-serif" font-size="21" font-weight="800">NETTOS</text>
  <text x="67" y="42.2" fill="#005B87" font-family="Arial, sans-serif" font-size="21" font-weight="800">EXPORTS</text>
  <text x="67" y="53" fill="#15803D" font-family="Arial, sans-serif" font-size="7.6" font-weight="600">International Seafood Exporters</text>
</svg>
