<svg width="1322" height="350" viewBox="0 0 1322 350" fill="none" xmlns="http://www.w3.org/2000/svg">
  <rect width="1322" height="350" rx="20" fill="white"/>
  <text x="214" y="98" fill="#E8E8E8" font-family="Georgia, serif" font-style="italic" font-size="92">The King</text>
  <ellipse cx="661" cy="300" rx="450" ry="30" fill="#F1F1F1"/>
  <g transform="translate(570 54)">
    <path d="M94 8L104 32L130 26L114 48L134 66L106 66L96 91L84 66L56 67L76 48L60 26L86 32L94 8Z" fill="#D9A514"/>
    <ellipse cx="96" cy="116" rx="48" ry="69" fill="#141414"/>
    <ellipse cx="96" cy="128" rx="30" ry="49" fill="white"/>
    <circle cx="77" cy="80" r="6" fill="white"/>
    <circle cx="115" cy="80" r="6" fill="white"/>
    <path d="M84 96C92 103 101 103 109 96" stroke="#FFB000" stroke-width="7" stroke-linecap="round"/>
    <path d="M54 126C26 142 10 168 4 196" stroke="#111" stroke-width="16" stroke-linecap="round"/>
    <path d="M138 126C169 143 185 170 190 198" stroke="#111" stroke-width="16" stroke-linecap="round"/>
    <path d="M68 183L43 210" stroke="#FFB000" stroke-width="12" stroke-linecap="round"/>
    <path d="M122 183L149 210" stroke="#FFB000" stroke-width="12" stroke-linecap="round"/>
  </g>
  <g opacity="0.95">
    <image href="/assets/images/products/tuna.svg" x="90" y="150" width="310" height="130" preserveAspectRatio="xMidYMid meet"/>
    <image href="/assets/images/products/sardine.svg" x="250" y="202" width="160" height="82" preserveAspectRatio="xMidYMid meet"/>
    <image href="/assets/images/products/grouper.svg" x="415" y="193" width="142" height="100" preserveAspectRatio="xMidYMid meet"/>
    <image href="/assets/images/blog/blog-octopus.svg" x="530" y="166" width="270" height="145" preserveAspectRatio="xMidYMid meet"/>
    <image href="/assets/images/products/salmon.svg" x="826" y="190" width="235" height="104" preserveAspectRatio="xMidYMid meet"/>
    <image href="/assets/images/products/snapper.svg" x="1036" y="196" width="190" height="94" preserveAspectRatio="xMidYMid meet"/>
  </g>
  <g fill="#F5F5F5" stroke="#CFCFCF" stroke-width="3">
    <rect x="252" y="238" width="72" height="58" rx="10"/>
    <rect x="392" y="242" width="72" height="58" rx="10"/>
    <rect x="805" y="242" width="72" height="58" rx="10"/>
    <rect x="972" y="238" width="72" height="58" rx="10"/>
  </g>
  <circle cx="474" cy="278" r="14" fill="#E4472F"/>
  <circle cx="1100" cy="188" r="10" fill="#F3CE2D"/>
  <circle cx="1140" cy="176" r="9" fill="#2166E8"/>
  <circle cx="1176" cy="190" r="11" fill="#1E1E1E"/>
</svg>
