<svg width="1230" height="520" viewBox="0 0 1230 520" fill="none" xmlns="http://www.w3.org/2000/svg">
  <text x="0" y="92" fill="#BDBDBD" font-family="Georgia, serif" font-style="italic" font-size="92">Tuna</text>
  <ellipse cx="615" cy="290" rx="360" ry="94" fill="#C8C8C8"/>
  <path d="M276 300C390 204 693 160 960 264C832 406 479 410 276 300Z" fill="#C7C9CC"/>
  <path d="M276 300C411 197 698 176 952 263C809 319 542 338 276 300Z" fill="#111B2B"/>
  <path d="M514 224L585 108L610 235" fill="#323846"/>
  <path d="M880 269L1128 158L1046 294L1134 424L883 318Z" fill="#151923"/>
  <path d="M612 365L670 466L723 357" fill="#C9B000"/>
  <path d="M250 300C300 250 348 245 375 303C340 354 294 350 250 300Z" fill="#BCC0C6"/>
  <circle cx="318" cy="282" r="18" fill="#111111"/>
  <circle cx="313" cy="276" r="6" fill="white"/>
  <path d="M282 329C326 349 355 341 381 312" stroke="#8C8F94" stroke-width="4"/>
  <path d="M620 201C690 192 771 210 842 243" stroke="#ECECEC" stroke-opacity="0.28" stroke-width="6" stroke-linecap="round"/>
</svg>
