<svg width="25" height="25" viewBox="0 0 25 25" fill="none" xmlns="http://www.w3.org/2000/svg">
<mask id="mask0_236_2652" style="mask-type:alpha" maskUnits="userSpaceOnUse" x="0" y="0" width="25" height="25">
<rect width="24.0319" height="24.0319" fill="#D9D9D9"/>
</mask>
<g mask="url(#mask0_236_2652)">
<path d="M12.0166 20.0252C9.78027 20.0252 7.88609 19.2492 6.33403 17.6972C4.78197 16.1451 4.00594 14.2509 4.00594 12.0146C4.00594 9.77832 4.78197 7.88414 6.33403 6.33208C7.88609 4.78002 9.78027 4.00399 12.0166 4.00399C14.2529 4.00399 16.1471 4.78002 17.6991 6.33208C19.2512 7.88414 20.0272 9.77832 20.0272 12.0146C20.0272 14.2509 19.2512 16.1451 17.6991 17.6972C16.1471 19.2492 14.2529 20.0252 12.0166 20.0252ZM12.0166 18.0226C13.6855 18.0226 15.104 17.4385 16.2722 16.2703C17.4404 15.102 18.0245 13.6835 18.0245 12.0146C18.0245 11.7309 18.0037 11.4514 17.962 11.176C17.9202 10.9006 17.8577 10.6294 17.7742 10.3624C17.5239 10.4125 17.2735 10.45 17.0232 10.4751C16.7729 10.5001 16.5226 10.5126 16.2722 10.5126C15.2208 10.5126 14.2195 10.3124 13.2682 9.91183C12.317 9.5113 11.4658 8.92719 10.7148 8.1595C10.2476 9.11076 9.60504 9.93686 8.78729 10.6378C7.96953 11.3387 7.0433 11.8477 6.0086 12.1648C6.05866 13.8003 6.66363 15.1855 7.82351 16.3203C8.98338 17.4552 10.3811 18.0226 12.0166 18.0226ZM6.40913 9.86176C7.14344 9.47792 7.70251 9.03149 8.08636 8.52248C8.4702 8.01347 8.8457 7.40851 9.21285 6.70758C8.57868 7.04135 8.0196 7.47943 7.53562 8.02182C7.05165 8.56421 6.67615 9.17752 6.40913 9.86176ZM9.51325 14.0173C9.22954 14.0173 8.99172 13.9213 8.7998 13.7294C8.60788 13.5375 8.51192 13.2997 8.51192 13.0159C8.51192 12.7322 8.60788 12.4944 8.7998 12.3025C8.99172 12.1106 9.22954 12.0146 9.51325 12.0146C9.79696 12.0146 10.0348 12.1106 10.2267 12.3025C10.4186 12.4944 10.5146 12.7322 10.5146 13.0159C10.5146 13.2997 10.4186 13.5375 10.2267 13.7294C10.0348 13.9213 9.79696 14.0173 9.51325 14.0173ZM16.2722 8.50997H16.5726C16.6728 8.50997 16.7729 8.50162 16.873 8.48493C16.3223 7.73394 15.6255 7.13314 14.7827 6.68254C13.94 6.23194 13.0179 6.00664 12.0166 6.00664H11.7162C11.616 6.00664 11.5243 6.01499 11.4408 6.03168C12.0917 6.78267 12.7801 7.38347 13.506 7.83407C14.232 8.28467 15.1541 8.50997 16.2722 8.50997ZM14.5199 14.0173C14.2362 14.0173 13.9984 13.9213 13.8064 13.7294C13.6145 13.5375 13.5186 13.2997 13.5186 13.0159C13.5186 12.7322 13.6145 12.4944 13.8064 12.3025C13.9984 12.1106 14.2362 12.0146 14.5199 12.0146C14.8036 12.0146 15.0414 12.1106 15.2333 12.3025C15.4253 12.4944 15.5212 12.7322 15.5212 13.0159C15.5212 13.2997 15.4253 13.5375 15.2333 13.7294C15.0414 13.9213 14.8036 14.0173 14.5199 14.0173ZM1.00195 6.00664V3.00266C1.00195 2.45193 1.19805 1.98047 1.59023 1.58828C1.98242 1.19609 2.45388 1 3.00461 1H6.0086V3.00266H3.00461V6.00664H1.00195ZM6.0086 23.0292H3.00461C2.45388 23.0292 1.98242 22.8331 1.59023 22.441C1.19805 22.0488 1.00195 21.5773 1.00195 21.0266V18.0226H3.00461V21.0266H6.0086V23.0292ZM18.0245 23.0292V21.0266H21.0285V18.0226H23.0312V21.0266C23.0312 21.5773 22.8351 22.0488 22.4429 22.441C22.0507 22.8331 21.5793 23.0292 21.0285 23.0292H18.0245ZM21.0285 6.00664V3.00266H18.0245V1H21.0285C21.5793 1 22.0507 1.19609 22.4429 1.58828C22.8351 1.98047 23.0312 2.45193 23.0312 3.00266V6.00664H21.0285Z" fill="#0161FE"/>
</g>
</svg>
