<svg width="23" height="23" viewBox="0 0 23 23" fill="none" xmlns="http://www.w3.org/2000/svg">
<path d="M11.0146 19.0252C8.77832 19.0252 6.88414 18.2492 5.33208 16.6972C3.78002 15.1451 3.00399 13.2509 3.00399 11.0146C3.00399 8.77832 3.78002 6.88414 5.33208 5.33208C6.88414 3.78002 8.77832 3.00399 11.0146 3.00399C13.2509 3.00399 15.1451 3.78002 16.6972 5.33208C18.2492 6.88414 19.0252 8.77832 19.0252 11.0146C19.0252 13.2509 18.2492 15.1451 16.6972 16.6972C15.1451 18.2492 13.2509 19.0252 11.0146 19.0252ZM11.0146 17.0226C12.6835 17.0226 14.102 16.4385 15.2703 15.2703C16.4385 14.102 17.0226 12.6835 17.0226 11.0146C17.0226 10.7309 17.0017 10.4514 16.96 10.176C16.9183 9.90064 16.8557 9.62945 16.7723 9.36243C16.5219 9.41249 16.2716 9.45004 16.0213 9.47508C15.7709 9.50011 15.5206 9.51262 15.2703 9.51262C14.2189 9.51262 13.2175 9.31236 12.2663 8.91183C11.315 8.5113 10.4639 7.92719 9.71289 7.1595C9.2456 8.11076 8.60308 8.93686 7.78533 9.63779C6.96758 10.3387 6.04135 10.8477 5.00664 11.1648C5.05671 12.8003 5.66168 14.1855 6.82155 15.3203C7.98143 16.4552 9.37911 17.0226 11.0146 17.0226ZM5.40718 8.86176C6.14148 8.47792 6.70056 8.03149 7.0844 7.52248C7.46825 7.01347 7.84374 6.40851 8.2109 5.70758C7.57672 6.04135 7.01765 6.47943 6.53367 7.02182C6.0497 7.56421 5.6742 8.17752 5.40718 8.86176ZM8.5113 13.0173C8.22759 13.0173 7.98977 12.9213 7.79785 12.7294C7.60593 12.5375 7.50997 12.2997 7.50997 12.0159C7.50997 11.7322 7.60593 11.4944 7.79785 11.3025C7.98977 11.1106 8.22759 11.0146 8.5113 11.0146C8.79501 11.0146 9.03282 11.1106 9.22474 11.3025C9.41667 11.4944 9.51262 11.7322 9.51262 12.0159C9.51262 12.2997 9.41667 12.5375 9.22474 12.7294C9.03282 12.9213 8.79501 13.0173 8.5113 13.0173ZM15.2703 7.50997H15.5707C15.6708 7.50997 15.7709 7.50162 15.8711 7.48493C15.3203 6.73394 14.6236 6.13314 13.7808 5.68254C12.938 5.23194 12.0159 5.00664 11.0146 5.00664H10.7142C10.6141 5.00664 10.5223 5.01499 10.4389 5.03168C11.0897 5.78267 11.7781 6.38347 12.5041 6.83407C13.2301 7.28467 14.1521 7.50997 15.2703 7.50997ZM13.5179 13.0173C13.2342 13.0173 12.9964 12.9213 12.8045 12.7294C12.6126 12.5375 12.5166 12.2997 12.5166 12.0159C12.5166 11.7322 12.6126 11.4944 12.8045 11.3025C12.9964 11.1106 13.2342 11.0146 13.5179 11.0146C13.8017 11.0146 14.0395 11.1106 14.2314 11.3025C14.4233 11.4944 14.5193 11.7322 14.5193 12.0159C14.5193 12.2997 14.4233 12.5375 14.2314 12.7294C14.0395 12.9213 13.8017 13.0173 13.5179 13.0173ZM0 5.00664V2.00266C0 1.45193 0.196094 0.980468 0.588281 0.588281C0.980468 0.196094 1.45193 0 2.00266 0H5.00664V2.00266H2.00266V5.00664H0ZM5.00664 22.0292H2.00266C1.45193 22.0292 0.980468 21.8331 0.588281 21.441C0.196094 21.0488 0 20.5773 0 20.0266V17.0226H2.00266V20.0266H5.00664V22.0292ZM17.0226 22.0292V20.0266H20.0266V17.0226H22.0292V20.0266C22.0292 20.5773 21.8331 21.0488 21.441 21.441C21.0488 21.8331 20.5773 22.0292 20.0266 22.0292H17.0226ZM20.0266 5.00664V2.00266H17.0226V0H20.0266C20.5773 0 21.0488 0.196094 21.441 0.588281C21.8331 0.980468 22.0292 1.45193 22.0292 2.00266V5.00664H20.0266Z" fill="white"/>
</svg>
