<svg width="20" height="19" viewBox="0 0 20 19" fill="none" xmlns="http://www.w3.org/2000/svg">
<path d="M2.00266 16.0213V2.00266V6.4836V6.00797V16.0213ZM4.00532 10.0133H9.53766C9.57104 9.64614 9.65448 9.29567 9.78799 8.96189C9.9215 8.62812 10.0884 8.31103 10.2887 8.01063H4.00532V10.0133ZM4.00532 14.0186H7.93553C8.21924 13.6848 8.54467 13.4136 8.91183 13.205C9.27898 12.9964 9.66282 12.8254 10.0634 12.6918C9.9966 12.5917 9.93819 12.4832 9.88812 12.3664C9.83806 12.2496 9.79634 12.1328 9.76296 12.0159H4.00532V14.0186ZM4.00532 6.00797H14.0186V4.00532H4.00532V6.00797ZM2.00266 18.0239C1.45193 18.0239 0.980468 17.8278 0.588281 17.4356C0.196094 17.0435 0 16.572 0 16.0213V2.00266C0 1.45193 0.196094 0.980468 0.588281 0.588281C0.980468 0.196094 1.45193 0 2.00266 0H16.0213C16.572 0 17.0435 0.196094 17.4356 0.588281C17.8278 0.980468 18.0239 1.45193 18.0239 2.00266V8.46123C17.7903 8.02732 17.5066 7.64348 17.1728 7.3097C16.839 6.97592 16.4552 6.70056 16.0213 6.4836V2.00266H2.00266V16.0213H7.05937C7.04268 16.1214 7.03016 16.2215 7.02182 16.3217C7.01347 16.4218 7.0093 16.5219 7.0093 16.6221V18.0239H2.00266ZM14.0186 13.0173C13.3177 13.0173 12.7252 12.7753 12.2412 12.2913C11.7573 11.8073 11.5153 11.2149 11.5153 10.514C11.5153 9.81302 11.7573 9.22057 12.2412 8.7366C12.7252 8.25262 13.3177 8.01063 14.0186 8.01063C14.7195 8.01063 15.312 8.25262 15.796 8.7366C16.2799 9.22057 16.5219 9.81302 16.5219 10.514C16.5219 11.2149 16.2799 11.8073 15.796 12.2913C15.312 12.7753 14.7195 13.0173 14.0186 13.0173ZM9.01196 18.0239V16.6221C9.01196 16.2215 9.11627 15.8502 9.32488 15.5081C9.53349 15.166 9.82971 14.9198 10.2136 14.7696C10.8144 14.5193 11.436 14.3315 12.0785 14.2064C12.7211 14.0812 13.3677 14.0186 14.0186 14.0186C14.6695 14.0186 15.3162 14.0812 15.9587 14.2064C16.6012 14.3315 17.2229 14.5193 17.8237 14.7696C18.2075 14.9198 18.5037 15.166 18.7123 15.5081C18.9209 15.8502 19.0252 16.2215 19.0252 16.6221V18.0239H9.01196Z" fill="#0161FE"/>
</svg>
