<svg width="17" height="17" viewBox="0 0 17 17" fill="none" xmlns="http://www.w3.org/2000/svg">
<path d="M10.576 2.02257L14.9733 6.42163C15.231 6.67928 15.4074 7.00689 15.4807 7.36386C15.554 7.72083 15.521 8.09147 15.3857 8.42984L13.1842 13.935C13.0607 14.2431 12.8571 14.5127 12.5944 14.7157C12.3317 14.9186 12.0196 15.0477 11.6902 15.0894L6.96249 15.6806C6.84086 15.6949 6.71365 15.7123 6.58085 15.7327L6.16755 15.7998L5.9516 15.8389L5.2786 15.9692L4.81783 16.067L4.12435 16.2234L3.2354 16.4357L1.79073 16.8044L1.18941 16.9663C1.03766 17.0081 0.877861 17.011 0.724668 16.975C0.571475 16.9389 0.429789 16.8649 0.3126 16.7598C0.195411 16.6548 0.106471 16.522 0.0539321 16.3736C0.00139372 16.2252 -0.0130608 16.066 0.0118935 15.9106L0.043542 15.7746L0.318141 14.7394L0.563883 13.7636L0.776115 12.8745L0.931565 12.1809L1.0293 11.7191L1.16055 11.0469L1.23502 10.6215L1.29459 10.223L1.90895 5.3072C1.95076 4.97772 2.07992 4.66542 2.28304 4.40268C2.48615 4.13994 2.75583 3.93631 3.06412 3.81292L8.56819 1.61106C8.9065 1.47575 9.27707 1.4427 9.63397 1.51602C9.99087 1.58933 10.3184 1.76485 10.576 2.02257ZM7.1226 7.24093C6.88742 7.4763 6.71961 7.7704 6.63661 8.09263C6.55361 8.41486 6.55846 8.75345 6.65066 9.07317C6.5828 9.11291 6.52024 9.16108 6.46449 9.21655L2.68713 12.9946C2.66238 13.0197 2.64527 13.0514 2.6378 13.0859L2.55495 13.4443L2.38926 14.1361L2.30921 14.4628C2.30102 14.4943 2.30118 14.5273 2.30969 14.5586C2.3182 14.59 2.33475 14.6185 2.35771 14.6415C2.38067 14.6645 2.40924 14.681 2.44057 14.6895C2.4719 14.698 2.50492 14.6982 2.53634 14.69L3.20375 14.5271L3.91398 14.3614C3.94822 14.3535 3.97952 14.336 4.00427 14.3111L7.78163 10.533C7.83702 10.4775 7.88519 10.4153 7.92498 10.3477C8.2404 10.4384 8.57417 10.4441 8.89249 10.3642C9.21081 10.2843 9.50236 10.1217 9.73758 9.89277C9.97281 9.66386 10.1433 9.37683 10.2319 9.06076C10.3205 8.74469 10.324 8.41082 10.242 8.09298C10.16 7.77514 9.99546 7.48462 9.76504 7.25088C9.53462 7.01713 9.24652 6.84846 8.92993 6.76196C8.61335 6.67546 8.27952 6.6742 7.96229 6.75831C7.64506 6.84243 7.3557 7.00892 7.12353 7.24093H7.1226ZM11.4585 0.273184C11.6186 0.112747 11.8318 0.0162792 12.058 0.00188053C12.2843 -0.0125181 12.508 0.056142 12.6872 0.194978L12.7747 0.273184L16.7242 4.22257C16.8929 4.38972 16.9914 4.61506 16.9995 4.85244C17.0075 5.08983 16.9246 5.32132 16.7675 5.49953C16.6105 5.67774 16.3914 5.78919 16.1549 5.81107C15.9184 5.83295 15.6825 5.76361 15.4955 5.61723L15.4071 5.53903L11.4585 1.58964C11.284 1.41505 11.1859 1.17829 11.1859 0.931414C11.1859 0.684541 11.284 0.447776 11.4585 0.273184Z" fill="white"/>
</svg>
