<svg width="21" height="21" viewBox="0 0 21 21" fill="none" xmlns="http://www.w3.org/2000/svg">
<path d="M8.91 5.47599V2.71224C8.91 2.25822 8.72964 1.8228 8.4086 1.50176C8.08756 1.18072 7.65214 1.00036 7.19813 1.00036C6.24938 1.00036 5.47938 1.77036 5.47938 2.71224L5.48625 2.71911C5.48625 2.91161 5.6375 3.06286 5.83 3.06286C6.0225 3.06286 6.17375 2.91161 6.17375 2.71911L6.16688 2.71224C6.17661 2.44615 6.28916 2.19421 6.48085 2.0094C6.67253 1.8246 6.92842 1.72134 7.19469 1.72134C7.46095 1.72134 7.71684 1.8246 7.90853 2.0094C8.10022 2.19421 8.21277 2.44615 8.2225 2.71224V6.10161L7.41125 7.08474C6.73736 7.84548 6.25134 8.75371 5.99225 9.73642L5.54812 9.56661C5.10125 9.39474 4.79875 8.96161 4.79875 8.48036V5.31099H4.78844H4.79188V2.59536C4.79188 1.82536 4.24875 1.15849 3.52688 1.00724C3.48747 0.99789 3.44645 0.997593 3.40691 1.00637C3.36737 1.01514 3.33033 1.03276 3.29857 1.0579C3.26682 1.08304 3.24117 1.11505 3.22356 1.15152C3.20594 1.188 3.19682 1.22798 3.19688 1.26849V3.76824C3.15568 3.76562 3.11441 3.76425 3.07312 3.76411H2.82563C2.585 3.76411 2.39937 3.57161 2.39937 3.33786V1.37161C2.39878 1.31788 2.3866 1.2649 2.36365 1.21631C2.3407 1.16772 2.30753 1.12465 2.26641 1.09005C2.22529 1.05546 2.17718 1.03015 2.12538 1.01586C2.07357 1.00156 2.01929 0.998624 1.96625 1.00724C0.8525 1.21349 1.63576e-09 2.22411 1.63576e-09 3.39974V5.61349C-2.48112e-05 6.35895 0.28224 7.07677 0.790016 7.62256C1.29779 8.16835 1.99341 8.50161 2.73694 8.5553C2.75435 9.19404 2.95996 9.81342 3.32797 10.3358C3.69598 10.8581 4.21002 11.2602 4.80562 11.4916L5.79356 11.869C5.82067 12.2422 5.87978 12.6122 5.97025 12.9752L5.35563 12.8116C5.26874 12.7885 5.18884 12.7445 5.12292 12.6834C5.057 12.6222 5.00707 12.5459 4.9775 12.461L4.77125 11.856C4.74116 11.7694 4.67791 11.6983 4.59539 11.6583C4.51287 11.6183 4.41786 11.6128 4.33125 11.6429C4.24464 11.6729 4.17353 11.7362 4.13356 11.8187C4.09359 11.9012 4.08804 11.9963 4.11812 12.0829L4.32438 12.6879C4.455 13.0729 4.77813 13.3685 5.17 13.4785L6.20125 13.7535L6.27688 13.9941H4.71625C4.32437 13.9941 3.96687 13.8085 3.74687 13.4922L3.36187 12.8941C3.31256 12.8176 3.23493 12.7638 3.146 12.7445C3.05708 12.7252 2.96412 12.7419 2.8875 12.791C2.81102 12.8403 2.75722 12.9179 2.73789 13.0069C2.71855 13.0958 2.73527 13.1887 2.78438 13.2654L3.17625 13.8772C3.52688 14.3791 4.0975 14.6816 4.71625 14.6816H6.49138L6.57456 14.9484L5.05313 15.3554C4.675 15.4585 4.27625 15.3691 3.9875 15.1216L3.575 14.7504C3.50808 14.6901 3.42016 14.6584 3.33016 14.6623C3.24016 14.6661 3.15527 14.7052 3.09375 14.771C2.97 14.9085 2.97688 15.1285 3.11438 15.2522L3.54063 15.6372C3.8775 15.926 4.30375 16.0772 4.74375 16.0772C4.90875 16.0772 5.06687 16.0566 5.23187 16.0154L6.77875 15.6015L6.90456 16.003L6.50375 16.4279C6.31125 16.6272 6.04313 16.7441 5.76125 16.7441H5.13563C4.94313 16.7441 4.79188 16.8954 4.79188 17.0879C4.79188 17.2804 4.95 17.4385 5.13563 17.4385H5.76813C6.23563 17.4385 6.68937 17.246 7.00562 16.9022L7.14037 16.7592L7.381 17.5306L6.47625 18.4354C6.06375 18.8479 6.06375 19.5216 6.47625 19.9341L6.48313 19.941C6.89563 20.3535 7.56937 20.3535 7.98187 19.941L8.25756 19.6653C8.56694 19.9884 8.98769 20.1995 9.45312 20.2366C9.72982 20.2589 10.008 20.2195 10.2677 20.1213C10.5273 20.0231 10.7619 19.8685 10.9546 19.6687L11.2269 19.941C11.6394 20.3535 12.3131 20.3535 12.7256 19.941L12.7325 19.9341C13.145 19.5216 13.145 18.8479 12.7325 18.4354L11.8298 17.5327L12.0567 16.808L12.2031 16.9641C12.5194 17.3079 12.9731 17.5004 13.4406 17.5004H14.0731C14.2587 17.5004 14.4237 17.3422 14.4237 17.1497C14.4237 16.9572 14.2725 16.806 14.08 16.806H13.4475C13.1656 16.806 12.8975 16.6891 12.705 16.4897L12.2925 16.0525L12.3131 15.9879L12.3069 15.994L12.4101 15.6641L13.9769 16.0834C14.2684 16.161 14.5743 16.1671 14.8688 16.1012C15.1632 16.0354 15.4374 15.8996 15.6681 15.7053L16.0944 15.3203C16.2319 15.1965 16.2388 14.9765 16.115 14.839C15.9913 14.7015 15.7712 14.6947 15.6337 14.8184L15.2212 15.1897C14.9325 15.4372 14.5338 15.5265 14.1556 15.4234L12.6136 15.0109L12.6968 14.7435H14.4925C15.1112 14.7435 15.6819 14.4479 16.0325 13.9391L16.4244 13.3272C16.4735 13.2506 16.4902 13.1577 16.4709 13.0687C16.4515 12.9798 16.3977 12.9022 16.3212 12.8529C16.2446 12.8038 16.1517 12.787 16.0627 12.8064C15.9738 12.8257 15.8962 12.8795 15.8469 12.956L15.4619 13.5541C15.2419 13.8704 14.8844 14.056 14.4925 14.056H12.9113L12.9841 13.8209L14.0387 13.5404C14.4306 13.4304 14.7537 13.1347 14.8844 12.7497L15.0906 12.1447C15.1055 12.1019 15.1118 12.0565 15.1092 12.0111C15.1065 11.9658 15.095 11.9215 15.0752 11.8806C15.0554 11.8397 15.0278 11.8032 14.9938 11.773C14.9599 11.7428 14.9204 11.7196 14.8775 11.7047C14.8346 11.6898 14.7892 11.6835 14.7439 11.6862C14.6986 11.6888 14.6542 11.7004 14.6134 11.7202C14.5725 11.74 14.5359 11.7676 14.5058 11.8015C14.4756 11.8354 14.4524 11.875 14.4375 11.9179L14.2313 12.5229C14.1694 12.6947 14.0319 12.8254 13.8531 12.8735L13.2206 13.0419C13.3217 12.6601 13.3875 12.2698 13.4173 11.8759L14.4237 11.4916C15.0194 11.2602 15.5334 10.8581 15.9014 10.3358C16.2694 9.81342 16.475 9.19404 16.4924 8.5553C17.236 8.50161 17.9316 8.16835 18.4394 7.62256C18.9471 7.07677 19.2294 6.35895 19.2294 5.61349V3.39974C19.2294 2.22411 18.3769 1.21349 17.2631 1.00724C17.2101 0.998624 17.1558 1.00156 17.104 1.01586C17.0522 1.03015 17.0041 1.05546 16.963 1.09005C16.9218 1.12465 16.8887 1.16772 16.8657 1.21631C16.8428 1.2649 16.8306 1.31788 16.83 1.37161V3.33786C16.83 3.57161 16.6444 3.76411 16.4038 3.76411H16.1562C16.115 3.76411 16.0737 3.76549 16.0325 3.76824V1.27536C16.0325 1.19974 15.9981 1.13099 15.95 1.08286C15.9193 1.04926 15.8801 1.02452 15.8366 1.01122C15.7931 0.997921 15.7467 0.996544 15.7025 1.00724C14.9806 1.15849 14.4375 1.82536 14.4375 2.59536V5.31099H14.4306V8.48036C14.4306 8.96161 14.1281 9.39474 13.6812 9.56661L13.2213 9.74192C12.9744 8.80099 12.5182 7.92793 11.8869 7.18786L10.9794 6.09199V2.71224C10.9794 2.14849 11.44 1.68786 12.0037 1.68786C12.5675 1.68786 13.0281 2.14849 13.0281 2.71224L13.035 2.71911C13.035 2.91161 13.1862 3.06286 13.3787 3.06286C13.5712 3.06286 13.7225 2.91161 13.7225 2.71911L13.7156 2.71224C13.7156 1.77036 12.9456 1.00036 12.0037 1.00036C11.0619 1.00036 10.2919 1.77036 10.2919 2.71224V5.47324C10.0772 5.36613 9.84045 5.31066 9.60053 5.31126C9.36061 5.31185 9.12415 5.36781 8.91 5.47599ZM8.91 8.1428C8.93273 8.20713 8.94246 8.27532 8.93864 8.34344C8.93482 8.41155 8.91752 8.47824 8.88775 8.53962C8.85797 8.601 8.81631 8.65586 8.76518 8.70103C8.71405 8.74619 8.65446 8.78076 8.58987 8.80273C8.52528 8.8247 8.45697 8.83363 8.38891 8.82901C8.32084 8.82439 8.25437 8.80631 8.19334 8.77581C8.13231 8.74532 8.07794 8.70301 8.03338 8.65135C7.98882 8.59969 7.95496 8.5397 7.93375 8.47486C7.89156 8.34588 7.90192 8.20547 7.96258 8.08408C8.02324 7.96269 8.12931 7.87011 8.25778 7.82641C8.38626 7.78271 8.52678 7.79142 8.64887 7.85065C8.77097 7.90988 8.86479 8.01485 8.91 8.1428ZM10.2919 8.16411C10.3109 8.09911 10.3426 8.03849 10.3851 7.98573C10.4275 7.93296 10.48 7.88908 10.5394 7.85658C10.5989 7.82409 10.6641 7.80362 10.7315 7.79634C10.7988 7.78906 10.8669 7.79512 10.9319 7.81417C10.9969 7.83322 11.0576 7.86489 11.1103 7.90737C11.1631 7.94984 11.207 8.0023 11.2395 8.06173C11.272 8.12117 11.2924 8.18642 11.2997 8.25377C11.307 8.32111 11.3009 8.38923 11.2819 8.45424C11.2434 8.58552 11.1544 8.69614 11.0343 8.76177C10.9143 8.82739 10.7731 8.84265 10.6418 8.80417C10.5105 8.7657 10.3999 8.67665 10.3343 8.55662C10.2687 8.43658 10.2534 8.29539 10.2919 8.16411Z" fill="white"/>
</svg>
