<svg width="17" height="19" viewBox="0 0 17 19" fill="none" xmlns="http://www.w3.org/2000/svg">
<path d="M2.00266 15.964H5.00664V10.8144C5.00664 10.5225 5.10261 10.2779 5.29453 10.0805C5.48645 9.88312 5.72426 9.78441 6.00797 9.78441H10.0133C10.297 9.78441 10.5348 9.88312 10.7267 10.0805C10.9187 10.2779 11.0146 10.5225 11.0146 10.8144V15.964H14.0186V6.6946L8.01063 2.05988L2.00266 6.6946V15.964ZM0 15.964V6.6946C0 6.36845 0.0709275 6.05947 0.212782 5.76765C0.354637 5.47584 0.550731 5.23552 0.801063 5.0467L6.80904 0.411975C7.1595 0.137325 7.56003 0 8.01063 0C8.46123 0 8.86176 0.137325 9.21223 0.411975L15.2202 5.0467C15.4705 5.23552 15.6666 5.47584 15.8085 5.76765C15.9503 6.05947 16.0213 6.36845 16.0213 6.6946V15.964C16.0213 16.5305 15.8252 17.0154 15.433 17.4188C15.0408 17.8222 14.5693 18.0239 14.0186 18.0239H10.0133C9.72958 18.0239 9.49176 17.9252 9.29984 17.7278C9.10792 17.5304 9.01196 17.2858 9.01196 16.994V11.8443H7.0093V16.994C7.0093 17.2858 6.91334 17.5304 6.72142 17.7278C6.5295 17.9252 6.29168 18.0239 6.00797 18.0239H2.00266C1.45193 18.0239 0.980468 17.8222 0.588281 17.4188C0.196094 17.0154 0 16.5305 0 15.964Z" fill="#0161FE"/>
</svg>
