<svg width="39" height="39" viewBox="0 0 39 39" fill="none" xmlns="http://www.w3.org/2000/svg">
<rect x="0.375104" y="0.375104" width="37.4729" height="37.4729" rx="18.7364" stroke="white" stroke-opacity="0.12" stroke-width="0.750207"/>
<path fill-rule="evenodd" clip-rule="evenodd" d="M19.1228 12.4214C21.302 12.4214 21.5609 12.4296 22.4218 12.4681C23.2175 12.5054 23.6503 12.6384 23.9384 12.7504C24.3187 12.8986 24.5905 13.0747 24.8763 13.3605C25.1621 13.6463 25.3383 13.9181 25.4864 14.2996C25.5984 14.5866 25.7314 15.0194 25.7675 15.8162C25.8072 16.6759 25.8143 16.9337 25.8143 19.1141C25.8143 21.2932 25.8072 21.5522 25.7675 22.4132C25.7314 23.2087 25.5984 23.6415 25.4877 23.9297C25.3383 24.3099 25.161 24.5817 24.8763 24.8676C24.6128 25.1386 24.2919 25.3471 23.9372 25.4777C23.6491 25.5897 23.2175 25.7226 22.4207 25.7589C21.5609 25.7985 21.3031 25.8055 19.1228 25.8055C16.9425 25.8055 16.6846 25.7985 15.8237 25.7589C15.0281 25.7226 14.5965 25.5897 14.3072 25.4789C13.9528 25.3477 13.6323 25.1389 13.3692 24.8676C13.0983 24.6041 12.8898 24.2832 12.7591 23.9285C12.6471 23.6403 12.5142 23.2087 12.478 22.4119C12.4383 21.5522 12.4313 21.2932 12.4313 19.1141C12.4313 16.9337 12.4383 16.6759 12.478 15.815C12.5142 15.0194 12.6471 14.5878 12.758 14.2984C12.9073 13.9181 13.0846 13.6463 13.3692 13.3605C13.6551 13.0747 13.9269 12.8986 14.3083 12.7504C14.5953 12.6384 15.0281 12.5054 15.8249 12.4693C16.6846 12.4296 16.9425 12.4226 19.1228 12.4226M19.1228 10.9492C16.9063 10.9492 16.6275 10.9586 15.7572 10.9982C14.8881 11.039 14.2932 11.1779 13.7752 11.3797C13.2303 11.5845 12.7366 11.9058 12.3287 12.3211C11.9138 12.7292 11.5929 13.2228 11.3884 13.7677C11.1866 14.2844 11.0478 14.8794 11.0081 15.7473C10.9684 16.6176 10.9591 16.8964 10.9591 19.1141C10.9591 21.3306 10.9684 21.6093 11.0081 22.4796C11.0478 23.3487 11.1866 23.9425 11.3884 24.4616C11.5961 24.9982 11.876 25.4532 12.3298 25.9082C12.7836 26.3608 13.2386 26.6408 13.7764 26.8484C14.2943 27.0502 14.8881 27.1891 15.7572 27.2288C16.6275 27.2684 16.9051 27.2778 19.1228 27.2778C21.3393 27.2778 21.6181 27.2684 22.4884 27.2288C23.3574 27.1891 23.9512 27.0502 24.4704 26.8484C25.0152 26.6436 25.509 26.3223 25.9169 25.907C26.3318 25.4989 26.6526 25.0053 26.8572 24.4605C27.059 23.9425 27.1978 23.3487 27.2374 22.4796C27.2771 21.6093 27.2864 21.3306 27.2864 19.1141C27.2864 16.8976 27.2771 16.6188 27.2374 15.7485C27.1978 14.8794 27.059 14.2856 26.8572 13.7665C26.6523 13.2216 26.331 12.7279 25.9158 12.3199C25.5077 11.9051 25.014 11.5842 24.4691 11.3797C23.9524 11.1779 23.3574 11.039 22.4895 10.9994C21.6192 10.9597 21.3393 10.9504 19.1228 10.9504" fill="white"/>
<path fill-rule="evenodd" clip-rule="evenodd" d="M19.1213 14.9229C18.0096 14.9229 16.9435 15.3645 16.1575 16.1506C15.3714 16.9366 14.9298 18.0028 14.9298 19.1144C14.9298 20.2261 15.3714 21.2922 16.1575 22.0783C16.9435 22.8643 18.0096 23.3059 19.1213 23.3059C20.233 23.3059 21.2991 22.8643 22.0851 22.0783C22.8712 21.2922 23.3128 20.2261 23.3128 19.1144C23.3128 18.0028 22.8712 16.9366 22.0851 16.1506C21.2991 15.3645 20.233 14.9229 19.1213 14.9229ZM19.1213 21.836C18.3995 21.836 17.7072 21.5493 17.1968 21.0389C16.6864 20.5285 16.3997 19.8362 16.3997 19.1144C16.3997 18.3926 16.6864 17.7003 17.1968 17.1899C17.7072 16.6795 18.3995 16.3928 19.1213 16.3928C19.8431 16.3928 20.5354 16.6795 21.0458 17.1899C21.5562 17.7003 21.8429 18.3926 21.8429 19.1144C21.8429 19.8362 21.5562 20.5285 21.0458 21.0389C20.5354 21.5493 19.8431 21.836 19.1213 21.836ZM24.4584 14.7573C24.4584 15.0172 24.3551 15.2664 24.1714 15.4502C23.9876 15.6339 23.7383 15.7372 23.4785 15.7372C23.2186 15.7372 22.9693 15.6339 22.7856 15.4502C22.6017 15.2664 22.4985 15.0172 22.4985 14.7573C22.4985 14.4974 22.6017 14.2481 22.7856 14.0644C22.9693 13.8806 23.2186 13.7773 23.4785 13.7773C23.7383 13.7773 23.9876 13.8806 24.1714 14.0644C24.3551 14.2481 24.4584 14.4974 24.4584 14.7573Z" fill="white"/>
</svg>
