<svg width="23" height="23" viewBox="0 0 23 23" fill="none" xmlns="http://www.w3.org/2000/svg">
<g clip-path="url(#clip0_933_9585)">
<path d="M15.069 11.5C15.0685 9.79584 15.5192 8.12192 16.3754 6.64844L16.7177 6.05277C16.0001 5.88201 15.269 5.77454 14.5327 5.73158C13.5471 4.9724 12.0781 4.07172 10.3846 3.78512L9.34375 3.59375L9.94436 6.37262C8.07246 7.00781 6.42113 8.29797 5.32818 9.18562C5.11675 9.00863 4.89544 8.83568 4.66424 8.66678C2.88039 7.36404 0.953691 7.23826 0.872832 7.23377L0 7.1875L0.119941 8.05494C0.132969 8.14478 0.424961 10.0643 1.54172 11.4924C0.424961 12.9209 0.134766 14.839 0.119941 14.9302L0 15.8125L0.872832 15.7514C0.953691 15.7469 2.88039 15.6216 4.66424 14.3184C4.89124 14.1528 5.10926 13.9825 5.3183 13.8076C6.41305 14.6984 8.06482 15.9908 9.93896 16.626L9.34375 19.4062L10.3846 19.2167C12.0687 18.9319 13.5327 18.0307 14.5174 17.2707C15.264 17.2275 16.0054 17.1188 16.7329 16.9459L16.3776 16.3538C15.5204 14.8798 15.0689 13.2051 15.069 11.5Z" fill="white"/>
<path d="M22.4425 9.9618C22.1797 9.51797 21.6995 8.84324 20.9066 8.15234C20.0813 7.44152 19.1389 6.87916 18.1215 6.49023L17.6197 7.36756C16.8913 8.62187 16.5073 10.0464 16.5065 11.4969C16.5058 12.9474 16.8885 14.3723 17.6157 15.6273L18.1435 16.5065C19.1503 16.1222 20.0836 15.5678 20.9026 14.8673C22.3284 13.6328 23 12.0844 23 11.5004C23 10.9474 22.6406 10.2992 22.4425 9.9618ZM18.6875 11.5004C18.5453 11.5004 18.4064 11.4582 18.2882 11.3792C18.17 11.3003 18.0779 11.188 18.0235 11.0567C17.9691 10.9253 17.9548 10.7808 17.9826 10.6414C18.0103 10.502 18.0787 10.3739 18.1793 10.2734C18.2798 10.1729 18.4079 10.1044 18.5473 10.0767C18.6867 10.0489 18.8312 10.0632 18.9626 10.1176C19.0939 10.172 19.2061 10.2641 19.2851 10.3823C19.3641 10.5005 19.4063 10.6395 19.4063 10.7816C19.4063 10.9722 19.3305 11.1551 19.1957 11.2899C19.0609 11.4246 18.8781 11.5004 18.6875 11.5004Z" fill="white"/>
</g>
<defs>
<clipPath id="clip0_933_9585">
<rect width="23" height="23" fill="white"/>
</clipPath>
</defs>
</svg>
