<svg width="39" height="39" viewBox="0 0 39 39" fill="none" xmlns="http://www.w3.org/2000/svg">
<rect x="0.375104" y="0.375104" width="37.4729" height="37.4729" rx="18.7364" stroke="white" stroke-opacity="0.12" stroke-width="0.750207"/>
<path fill-rule="evenodd" clip-rule="evenodd" d="M14.5403 27.2004H11.0289V15.9312H14.5403V27.2004ZM12.7438 14.543C11.6822 14.543 10.9473 13.8081 10.9473 12.8281C10.9473 11.8482 11.6822 11.1133 12.8254 11.1133C13.9687 11.1133 14.622 11.8482 14.622 12.8281C14.622 13.8081 13.9687 14.543 12.7438 14.543ZM27.2793 27.2004H23.7679V20.9941C23.7679 19.5243 23.2779 18.5443 21.9714 18.5443C20.9915 18.5443 20.4198 19.1976 20.1749 19.8509C20.0932 20.0959 20.0932 20.4225 20.0932 20.7492V27.2004H16.5818V19.5243C16.5818 18.136 16.5002 16.9928 16.5002 15.9312H19.5216L19.6849 17.4828H19.7666C20.2565 16.7478 21.3181 15.6862 23.1963 15.6862C25.4828 15.6862 27.1976 17.2378 27.1976 20.5042V27.2004H27.2793Z" fill="white"/>
</svg>
