<svg width="24" height="24" viewBox="0 0 24 24" fill="none" xmlns="http://www.w3.org/2000/svg">
<path d="M16.231 3.34887C15.7376 2.97064 15.1356 2.761 14.514 2.75087C13.482 2.72687 12.507 3.20387 11.826 3.68787C10.502 2.87887 9.321 2.84587 8.37 3.39087C7.529 3.87287 7.025 4.72587 6.758 5.43887C5.438 5.56887 4.566 6.17187 4.114 7.06087C3.694 7.88487 3.702 8.83287 3.832 9.58487L3.772 9.64787L3.661 9.72987C3.231 9.99987 3.031 10.4999 2.93 10.8599C2.81363 11.2948 2.75314 11.7427 2.75 12.1929C2.744 12.6479 2.787 13.1229 2.893 13.5399C2.989 13.9129 3.18 14.4149 3.6 14.7019L8.84 18.2749L8.896 18.3279C8.928 18.3679 8.948 18.4199 8.952 18.4739L8.944 18.5569C8.853 18.9319 8.786 19.4419 8.93 19.9239C9.00944 20.1993 9.1614 20.4483 9.37 20.6449C9.599 20.8589 9.884 20.9949 10.202 21.0599L10.65 21.1439C11.658 21.3099 12.437 21.2809 13.517 21.0599L13.637 21.0309C13.9104 20.9617 14.1616 20.824 14.367 20.6309C14.597 20.4109 14.729 20.1469 14.8 19.8889C14.9 19.5219 14.882 19.1399 14.828 18.8169L14.766 18.5169C14.7544 18.4688 14.7562 18.4186 14.7712 18.3715C14.7861 18.3244 14.8138 18.2823 14.851 18.2499L20.326 14.7129L20.352 14.6959L20.375 14.6779C20.794 14.3559 21.008 13.8499 21.118 13.4079C21.235 12.9429 21.27 12.4179 21.239 11.9169C21.2129 11.4147 21.1097 10.9196 20.933 10.4489C20.765 10.0289 20.483 9.55887 20.013 9.30287C20.227 8.73687 20.283 8.19287 20.19 7.68287C20.0932 7.18024 19.8624 6.7131 19.522 6.33087C18.947 5.66887 18.133 5.25487 17.469 5.03087C17.1477 4.29087 16.735 3.7302 16.231 3.34887ZM11.25 12.9999V7.99987C11.25 7.80096 11.329 7.61019 11.4697 7.46954C11.6103 7.32889 11.8011 7.24987 12 7.24987C12.1989 7.24987 12.3897 7.32889 12.5303 7.46954C12.671 7.61019 12.75 7.80096 12.75 7.99987V12.9999C12.75 13.1988 12.671 13.3895 12.5303 13.5302C12.3897 13.6709 12.1989 13.7499 12 13.7499C11.8011 13.7499 11.6103 13.6709 11.4697 13.5302C11.329 13.3895 11.25 13.1988 11.25 12.9999ZM7.677 9.29387C8.077 9.18687 8.487 9.42387 8.595 9.82387L9.372 12.7219L9.388 12.7969C9.41875 12.9807 9.37994 13.1694 9.27912 13.3262C9.17831 13.483 9.02272 13.5967 8.84268 13.645C8.66264 13.6933 8.47106 13.6728 8.30529 13.5876C8.13952 13.5023 8.01143 13.3584 7.946 13.1839L7.923 13.1099L7.146 10.2129C7.12044 10.1177 7.11387 10.0185 7.12667 9.9208C7.13947 9.82312 7.17139 9.72891 7.22061 9.64357C7.26983 9.55823 7.33538 9.48342 7.41352 9.42342C7.49165 9.36341 7.58185 9.31939 7.677 9.29387ZM15.158 13.6379C14.966 13.5863 14.8024 13.4607 14.703 13.2885C14.6037 13.1164 14.5767 12.9119 14.628 12.7199L15.404 9.82087C15.4556 9.62859 15.5814 9.46467 15.7539 9.36518C15.9263 9.2657 16.1312 9.23878 16.3235 9.29037C16.5158 9.34195 16.6797 9.46781 16.7792 9.64025C16.8787 9.81269 16.9056 10.0176 16.854 10.2099L16.076 13.1069C16.0244 13.2988 15.8988 13.4625 15.7267 13.5618C15.5545 13.6612 15.35 13.6892 15.158 13.6379Z" fill="white"/>
</svg>
