<svg width="20" height="19" viewBox="0 0 20 19" fill="none" xmlns="http://www.w3.org/2000/svg">
<path d="M1.00133 18.0239V13.7683L14.1938 0.600797C14.3941 0.400532 14.6194 0.250332 14.8697 0.150199C15.1201 0.0500665 15.3704 0 15.6207 0C15.8878 0 16.1423 0.0500665 16.3842 0.150199C16.6262 0.250332 16.839 0.400532 17.0226 0.600797L18.4245 2.00266C18.6247 2.18623 18.7749 2.39902 18.8751 2.64101C18.9752 2.88299 19.0252 3.1375 19.0252 3.40452C19.0252 3.65485 18.9752 3.90518 18.8751 4.15552C18.7749 4.40585 18.6247 4.63115 18.4245 4.83141L5.25698 18.0239H1.00133ZM3.00399 16.0213H4.40585L14.2439 6.20824L13.543 5.48228L12.817 4.78135L3.00399 14.6194V16.0213ZM13.543 5.48228L12.817 4.78135L14.2439 6.20824L13.543 5.48228ZM11.0146 18.0239C12.2496 18.0239 13.3928 17.7152 14.4442 17.0977C15.4956 16.4802 16.0213 15.6207 16.0213 14.5193C16.0213 13.9185 15.8627 13.4011 15.5456 12.9672C15.2285 12.5333 14.803 12.1578 14.2689 11.8407L12.792 13.3177C13.1758 13.4846 13.4762 13.6681 13.6932 13.8684C13.9101 14.0687 14.0186 14.2856 14.0186 14.5193C14.0186 14.9031 13.714 15.2494 13.1049 15.5581C12.4958 15.8669 11.799 16.0213 11.0146 16.0213C10.7309 16.0213 10.4931 16.1172 10.3012 16.3091C10.1093 16.5011 10.0133 16.7389 10.0133 17.0226C10.0133 17.3063 10.1093 17.5441 10.3012 17.736C10.4931 17.928 10.7309 18.0239 11.0146 18.0239ZM1.57709 10.3638L3.07909 8.86176C2.74531 8.72825 2.48246 8.59057 2.29054 8.44871C2.09862 8.30686 2.00266 8.16083 2.00266 8.01063C2.00266 7.81037 2.15286 7.6101 2.45326 7.40983C2.75365 7.20957 3.38783 6.90083 4.35578 6.4836C5.8244 5.84943 6.80069 5.27367 7.28467 4.75631C7.76864 4.23896 8.01063 3.65485 8.01063 3.00399C8.01063 2.0861 7.64348 1.35597 6.90917 0.81358C6.17486 0.271193 5.20691 0 4.00532 0C3.25432 0 2.58259 0.133511 1.99014 0.400532C1.39769 0.667553 0.942918 0.992985 0.625831 1.37683C0.442254 1.59378 0.367154 1.83577 0.400532 2.10279C0.433909 2.36981 0.559075 2.58677 0.77603 2.75365C0.992985 2.93723 1.23497 3.01233 1.50199 2.97895C1.76901 2.94558 1.99431 2.8371 2.17789 2.65352C2.41153 2.41988 2.67021 2.25299 2.95392 2.15286C3.23763 2.05272 3.5881 2.00266 4.00532 2.00266C4.68956 2.00266 5.19439 2.10279 5.51983 2.30306C5.84526 2.50332 6.00797 2.73697 6.00797 3.00399C6.00797 3.23763 5.86195 3.45041 5.56989 3.64233C5.27784 3.83426 4.60611 4.1722 3.55472 4.65618C2.21961 5.24029 1.29338 5.77016 0.77603 6.24579C0.258677 6.72142 0 7.3097 0 8.01063C0 8.54467 0.141855 8.99944 0.425565 9.37494C0.709275 9.75044 1.09312 10.08 1.57709 10.3638Z" fill="white"/>
</svg>
