<svg width="39" height="39" viewBox="0 0 39 39" fill="none" xmlns="http://www.w3.org/2000/svg">
<rect x="0.375104" y="0.375104" width="37.4729" height="37.4729" rx="18.7364" stroke="white" stroke-opacity="0.12" stroke-width="0.750207"/>
<path d="M11.3047 26.9219L12.4347 22.8132C11.7374 21.6105 11.371 20.2472 11.3717 18.8492C11.3737 14.4785 14.9473 10.9219 19.3382 10.9219C21.469 10.9225 23.4691 11.7485 24.9736 13.2472C26.4774 14.7459 27.3054 16.7379 27.3047 18.8565C27.3027 23.2279 23.729 26.7845 19.3382 26.7845C18.0052 26.7839 16.6916 26.4512 15.5281 25.8192L11.3047 26.9219ZM15.7237 24.3839C16.8463 25.0472 17.9181 25.4445 19.3355 25.4452C22.9848 25.4452 25.9576 22.4892 25.9596 18.8552C25.961 15.2139 23.0022 12.2619 19.3409 12.2605C15.6888 12.2605 12.7181 15.2165 12.7167 18.8499C12.7161 20.3332 13.1528 21.4439 13.8863 22.6059L13.2171 25.0379L15.7237 24.3839ZM23.3512 20.7412C23.3017 20.6585 23.169 20.6092 22.9694 20.5099C22.7705 20.4105 21.7918 19.9312 21.609 19.8652C21.4268 19.7992 21.2941 19.7659 21.1608 19.9645C21.0282 20.1625 20.6464 20.6092 20.5305 20.7412C20.4146 20.8732 20.2981 20.8899 20.0991 20.7905C19.9002 20.6912 19.2585 20.4825 18.4982 19.8072C17.9067 19.2819 17.5068 18.6332 17.3909 18.4345C17.275 18.2365 17.3789 18.1292 17.478 18.0305C17.5678 17.9419 17.677 17.7992 17.7768 17.6832C17.8779 17.5685 17.9107 17.4859 17.9777 17.3532C18.044 17.2212 18.0112 17.1052 17.961 17.0059C17.9107 16.9072 17.5128 15.9319 17.3474 15.5352C17.1853 15.1492 17.0212 15.2012 16.8993 15.1952L16.5174 15.1885C16.3848 15.1885 16.1691 15.2379 15.9869 15.4365C15.8047 15.6352 15.2903 16.1139 15.2903 17.0892C15.2903 18.0645 16.0037 19.0065 16.1028 19.1385C16.2026 19.2705 17.5061 21.2719 19.503 22.1299C19.9779 22.3339 20.349 22.4559 20.6377 22.5472C21.1146 22.6979 21.5487 22.6765 21.8916 22.6259C22.2741 22.5692 23.0692 22.1465 23.2354 21.6839C23.4015 21.2205 23.4015 20.8239 23.3512 20.7412Z" fill="white"/>
</svg>
