<svg width="39" height="39" viewBox="0 0 39 39" fill="none" xmlns="http://www.w3.org/2000/svg">
<rect x="0.375104" y="0.375104" width="37.4729" height="37.4729" rx="18.7364" stroke="white" stroke-opacity="0.12" stroke-width="0.750207"/>
<path fill-rule="evenodd" clip-rule="evenodd" d="M25.6422 15.7664V16.1747C25.6422 20.5843 22.2941 25.7289 16.0879 25.7289C14.2098 25.7289 12.4132 25.1573 10.9434 24.259C11.1883 24.259 11.515 24.3407 11.76 24.3407C13.3115 24.3407 14.7814 23.769 15.9246 22.8708C14.4547 22.8708 13.2298 21.8909 12.8215 20.5843C13.0665 20.5843 13.2298 20.666 13.4748 20.666C13.8015 20.666 14.1281 20.666 14.3731 20.5843C12.8215 20.2577 11.76 18.9511 11.76 17.3179V17.2363C11.76 17.4813 12.6582 17.6446 13.2298 17.6446C12.3316 17.073 11.6783 16.0114 11.6783 14.8681C11.6783 14.2149 11.8416 13.6432 12.1683 13.1533C13.8015 15.1948 16.2513 16.5013 19.1094 16.6647C18.946 16.338 18.8644 16.093 18.8644 15.8481C18.8644 13.9699 20.3343 12.5 22.2124 12.5C23.1924 12.5 24.009 12.9083 24.6623 13.5616C25.3972 13.3983 26.1321 13.1533 26.7854 12.745C26.5404 13.5616 25.9688 14.2149 25.3155 14.6232C25.9688 14.5415 26.6221 14.3782 27.2754 14.1332C26.7854 14.7048 26.2955 15.2764 25.6422 15.7664Z" fill="white"/>
</svg>
