<svg width="39" height="39" viewBox="0 0 39 39" fill="none" xmlns="http://www.w3.org/2000/svg">
<rect x="0.375104" y="0.375104" width="37.4729" height="37.4729" rx="18.7364" stroke="white" stroke-opacity="0.12" stroke-width="0.750207"/>
<path fill-rule="evenodd" clip-rule="evenodd" d="M28.125 13.065C28.4354 13.3975 28.6582 13.8109 28.7713 14.2638C29.1895 15.9356 29.1895 19.4219 29.1895 19.4219C29.1895 19.4219 29.1895 22.9082 28.7713 24.5799C28.6582 25.0329 28.4354 25.4463 28.125 25.7787C27.8147 26.1112 27.4278 26.351 27.0031 26.4743C25.4395 26.9219 19.1895 26.9219 19.1895 26.9219C19.1895 26.9219 12.9395 26.9219 11.3758 26.4743C10.9511 26.351 10.5642 26.1112 10.2539 25.7787C9.94355 25.4463 9.72071 25.0329 9.60763 24.5799C9.18945 22.9082 9.18945 19.4219 9.18945 19.4219C9.18945 19.4219 9.18945 15.9356 9.60763 14.2638C9.72071 13.8109 9.94355 13.3975 10.2539 13.065C10.5642 12.7326 10.9511 12.4927 11.3758 12.3695C12.9395 11.9219 19.1895 11.9219 19.1895 11.9219C19.1895 11.9219 25.4395 11.9219 27.0031 12.3695C27.4278 12.4927 27.8147 12.7326 28.125 13.065ZM22.3713 19.4219L17.144 16.2562V22.5876L22.3713 19.4219Z" fill="white"/>
</svg>
